<?xml version="1.0" standalone="no"?>
<!DOCTYPE svg PUBLIC "-//W3C//DTD SVG 20010904//EN"
 "http://www.w3.org/TR/2001/REC-SVG-20010904/DTD/svg10.dtd">
<svg version="1.0" xmlns="http://www.w3.org/2000/svg"
 width="960.000000pt" height="960.000000pt" viewBox="0 0 960.000000 960.000000"
 preserveAspectRatio="xMidYMid meet">
<metadata>
Created by potrace 1.11, written by Peter Selinger 2001-2013
</metadata>
<g transform="translate(0.000000,960.000000) scale(0.100000,-0.100000)"
fill="#000000" stroke="none">
<path d="M3776 9322 c-2 -1 -45 -4 -97 -7 -147 -7 -304 -26 -464 -57 -127 -23
-139 -26 -142 -28 -3 -3 -3 -3 -58 -15 -22 -4 -44 -10 -50 -11 -5 -2 -28 -8
-50 -13 -22 -6 -105 -33 -185 -61 -80 -28 -149 -52 -155 -54 -5 -1 -27 -10
-47 -19 -65 -29 -108 -47 -113 -48 -27 -3 -425 -220 -453 -246 -6 -6 -21 -15
-32 -18 -11 -3 -20 -11 -20 -16 0 -5 -6 -9 -14 -9 -8 0 -21 -6 -28 -13 -7 -7
-42 -33 -78 -57 -36 -25 -79 -56 -97 -70 -81 -65 -107 -86 -124 -102 -11 -10
-21 -18 -23 -18 -16 0 -289 -269 -371 -364 -27 -32 -55 -64 -60 -70 -6 -6 -26
-31 -45 -56 -19 -25 -38 -46 -42 -48 -5 -2 -8 -8 -8 -13 0 -6 -8 -19 -18 -29
-10 -11 -40 -53 -67 -92 -27 -40 -52 -75 -55 -78 -3 -3 -13 -18 -23 -35 -10
-16 -32 -54 -50 -83 -59 -98 -97 -166 -139 -252 -22 -47 -44 -87 -47 -90 -3
-3 -7 -9 -8 -15 -1 -5 -23 -57 -48 -115 -40 -92 -142 -374 -150 -419 -2 -9 -4
-16 -5 -16 -1 0 -4 -13 -6 -30 -3 -16 -9 -35 -15 -41 -5 -6 -6 -13 -4 -16 3
-3 1 -17 -4 -31 -5 -14 -13 -44 -16 -68 -4 -24 -8 -46 -10 -49 -5 -9 -37 -190
-41 -230 -1 -19 -3 -35 -4 -35 -1 0 -3 -13 -5 -30 -1 -16 -5 -55 -9 -85 -15
-125 -26 -564 -14 -586 2 -5 4 -35 4 -66 -1 -32 1 -58 4 -58 3 0 6 -24 6 -53
1 -28 5 -69 8 -89 3 -21 8 -54 11 -73 7 -47 16 -103 21 -129 2 -11 8 -46 14
-76 6 -30 17 -79 25 -109 8 -30 12 -58 9 -63 -3 -4 0 -8 5 -8 6 0 10 -3 10 -7
-1 -5 -1 -10 1 -13 1 -3 3 -16 6 -30 2 -14 7 -32 11 -40 3 -8 7 -20 9 -27 30
-141 209 -563 315 -745 24 -40 44 -75 44 -78 2 -11 151 -238 165 -250 3 -3 14
-18 24 -35 11 -16 23 -34 28 -40 4 -5 27 -35 50 -65 24 -30 47 -60 53 -66 5
-6 35 -40 65 -75 73 -85 269 -281 350 -349 35 -30 70 -59 76 -65 115 -98 362
-270 474 -331 19 -10 37 -21 40 -24 4 -4 29 -18 115 -64 11 -6 28 -18 39 -26
10 -8 19 -13 20 -11 0 2 20 -6 44 -18 23 -12 42 -18 42 -14 0 5 4 4 8 -2 10
-15 49 -35 67 -35 8 0 15 -4 15 -10 0 -5 6 -10 13 -10 7 0 37 -11 65 -25 29
-14 56 -25 62 -25 6 0 18 -4 28 -9 36 -19 306 -109 352 -118 8 -1 42 -9 75
-18 33 -8 74 -17 90 -20 17 -3 37 -8 45 -10 8 -2 26 -6 40 -9 14 -2 52 -9 85
-15 90 -16 220 -32 301 -35 22 -2 44 -5 50 -8 11 -6 504 -1 554 5 19 3 67 8
106 11 39 4 82 9 95 11 13 3 42 7 64 10 33 4 71 11 115 20 3 1 25 5 50 10 53
10 59 12 63 15 1 1 11 3 22 5 45 6 86 16 112 26 15 6 30 10 33 10 10 0 56 11
95 24 123 42 301 109 310 116 5 5 15 9 23 9 24 0 454 218 472 239 3 3 19 13
35 21 17 8 39 23 49 32 11 10 24 18 28 18 5 0 14 5 21 10 7 6 51 39 98 73 47
34 92 68 100 75 8 7 25 22 39 33 14 11 38 32 53 45 16 14 33 24 39 22 5 -2
595 -588 1309 -1302 l1298 -1299 238 237 237 238 -1299 1297 c-714 714 -1301
1303 -1303 1309 -2 6 12 28 31 49 120 136 258 335 360 518 24 43 121 241 162
330 51 110 125 312 117 319 -3 3 1 6 8 6 7 0 11 3 7 6 -3 4 0 22 8 40 8 19 12
34 10 34 -2 0 2 18 10 40 13 38 68 279 79 350 3 19 7 44 10 55 3 18 15 105 21
165 13 114 19 255 19 420 0 185 -11 407 -20 422 -2 4 -7 33 -10 65 -3 32 -7
69 -10 83 -3 14 -7 39 -10 55 -4 26 -30 153 -39 195 -2 8 -15 58 -29 110 -15
52 -29 104 -32 115 -8 29 -10 38 -17 55 -3 8 -15 42 -27 75 -43 120 -104 270
-112 273 -4 2 -8 9 -8 16 0 14 -123 258 -158 316 -12 19 -28 46 -35 60 -21 43
-184 290 -197 300 -3 3 -20 25 -38 50 -17 25 -41 57 -54 72 -13 14 -31 37 -42
50 -124 154 -461 490 -508 507 -6 2 -27 19 -46 37 -20 19 -39 34 -43 34 -3 0
-16 9 -29 20 -13 11 -55 41 -94 67 -39 27 -79 56 -90 66 -11 9 -24 17 -29 17
-4 0 -27 13 -50 28 -23 16 -62 40 -87 53 -25 13 -47 27 -50 30 -11 13 -377
188 -406 194 -6 2 -27 10 -45 18 -37 16 -131 52 -139 52 -3 0 -9 3 -15 7 -11
7 -210 65 -270 79 -22 5 -47 12 -55 16 -8 3 -26 7 -40 8 -14 1 -25 3 -25 4 0
2 -11 4 -25 7 -14 2 -59 11 -100 19 -41 8 -93 17 -115 19 -37 5 -61 8 -166 21
-97 12 -515 26 -523 17z m479 -395 c17 -3 57 -8 90 -12 33 -4 69 -9 80 -12 11
-2 38 -6 60 -9 22 -3 72 -13 110 -21 39 -8 81 -17 95 -19 49 -10 205 -54 250
-71 8 -4 18 -7 23 -8 4 -2 9 -4 12 -5 8 -4 17 -7 53 -15 18 -4 35 -12 38 -16
3 -5 11 -9 19 -9 33 0 386 -169 480 -230 17 -11 37 -23 45 -27 46 -20 277
-184 361 -256 347 -292 598 -594 810 -973 53 -96 159 -315 159 -329 0 -4 7
-21 15 -38 16 -36 85 -224 90 -247 2 -8 4 -17 5 -20 1 -3 2 -9 1 -14 -1 -4 4
-14 10 -22 6 -8 8 -14 4 -14 -4 0 -2 -6 4 -13 6 -8 8 -17 4 -20 -3 -4 -1 -12
4 -19 6 -7 13 -26 16 -43 3 -16 8 -43 12 -60 13 -58 36 -180 40 -210 3 -16 7
-52 11 -79 3 -27 7 -58 9 -69 23 -115 23 -615 1 -732 -2 -11 -7 -47 -10 -80
-4 -33 -9 -67 -11 -75 -3 -8 -7 -31 -9 -50 -3 -19 -8 -46 -11 -60 -3 -14 -8
-40 -11 -59 -3 -19 -10 -46 -16 -60 -5 -14 -9 -28 -9 -31 2 -24 -67 -244 -116
-368 -45 -114 -170 -372 -218 -447 -13 -22 -30 -51 -36 -65 -5 -13 -13 -27
-17 -30 -4 -3 -23 -30 -42 -60 -39 -63 -93 -138 -115 -161 -8 -9 -15 -20 -15
-25 0 -5 -15 -26 -33 -46 -17 -20 -39 -45 -47 -56 -104 -136 -331 -361 -521
-517 -137 -113 -367 -262 -519 -338 -36 -17 -66 -35 -68 -39 -2 -5 -7 -8 -12
-8 -5 0 -55 -22 -112 -49 -56 -26 -121 -54 -143 -61 -22 -7 -44 -15 -50 -19
-5 -3 -12 -6 -15 -7 -3 0 -12 -4 -20 -7 -53 -22 -189 -63 -345 -103 -11 -3
-29 -6 -40 -8 -11 -2 -45 -8 -75 -14 -60 -13 -88 -17 -165 -27 -27 -4 -63 -9
-80 -12 -95 -15 -501 -24 -527 -11 -10 5 -19 4 -23 -2 -4 -6 -11 -8 -16 -4 -5
3 -35 7 -66 10 -31 2 -72 6 -92 8 -20 3 -61 8 -91 12 -30 3 -64 8 -75 11 -11
2 -36 7 -55 10 -19 2 -61 11 -92 18 -32 7 -58 11 -58 8 0 -3 -7 0 -15 7 -8 7
-15 10 -15 7 0 -3 -15 -1 -32 4 -18 6 -44 12 -58 15 -27 6 -187 58 -281 93
-132 48 -459 204 -467 224 -2 4 -9 7 -16 7 -6 0 -53 27 -104 60 -51 33 -97 60
-102 60 -4 0 -10 4 -12 8 -1 4 -32 28 -68 52 -36 25 -69 51 -73 58 -4 6 -13
12 -19 12 -6 0 -18 8 -27 18 -9 9 -38 35 -66 57 -83 66 -114 95 -238 220 -139
142 -153 156 -198 214 -33 43 -55 69 -84 102 -8 9 -15 21 -15 27 0 5 -4 12 -8
14 -11 4 -124 169 -178 258 -47 78 -65 113 -133 248 -83 167 -189 449 -194
515 -1 9 -4 17 -8 17 -6 0 -10 15 -23 85 -2 11 -4 20 -6 20 -1 0 -3 9 -5 20
-7 35 -24 119 -29 141 -11 53 -27 165 -42 294 -3 25 -6 82 -7 127 -1 46 -6 83
-10 83 -4 0 -3 9 3 19 5 11 7 27 3 37 -5 14 -8 76 -4 87 1 1 4 63 7 137 3 74
6 151 8 170 8 72 17 146 21 170 3 14 7 41 10 60 5 41 9 60 31 156 8 39 17 79
19 90 2 10 4 21 6 24 1 3 3 10 4 15 2 6 4 13 5 18 1 4 3 10 4 15 21 79 65 220
81 257 7 17 23 57 35 90 12 33 25 64 30 70 4 5 11 21 15 35 11 37 89 194 98
198 4 2 7 10 7 19 0 8 9 26 20 40 11 14 20 32 20 39 0 8 3 14 8 14 4 0 13 14
21 30 13 30 165 264 185 286 28 30 46 55 46 63 0 5 3 11 8 13 4 2 29 30 57 63
144 173 322 345 495 479 25 19 52 41 60 48 9 7 49 36 90 63 41 27 77 51 80 55
22 24 320 185 445 240 88 38 263 106 295 115 14 4 94 28 178 54 17 5 32 7 32
5 0 -3 6 -2 13 3 6 4 17 8 22 9 6 1 21 5 35 8 51 12 126 27 160 32 19 3 46 7
60 10 14 3 43 7 65 10 22 3 51 7 65 10 14 2 63 7 110 10 47 4 87 8 89 10 5 5
520 -4 556 -9z"/>
</g>
</svg>
