<?xml version="1.0" encoding="UTF-8"?><!DOCTYPE svg PUBLIC "-//W3C//DTD SVG 1.1//EN" "http://www.w3.org/Graphics/SVG/1.1/DTD/svg11.dtd"><svg xmlns="http://www.w3.org/2000/svg" xmlns:xlink="http://www.w3.org/1999/xlink" version="1.1" id="Layer_1" x="0px" y="0px" width="32px" height="32px" viewBox="0 0 32 32" xml:space="preserve"><path d="M30.7 4.8c-.2-.2-.5-.2-.7 0-.7.4-1.9.6-3 .7-.3 0-.7.1-1 .1-1.2-1.1-2.8-1.8-4.5-1.8-3.6 0-6.5 2.9-6.5 6.5v.6c-4.2-.4-8.1-2.5-10.8-5.7-.2-.2-.4-.3-.6-.3-.3.1-.5.2-.6.4 0 .1-.9 2.1-.9 7.3 0 5 4.8 8.5 7 9.8-2.2 1.4-4.8 1.9-7.4 1.7-.3 0-.6.2-.7.5-.1.3 0 .6.3.8 2.8 1.8 6 2.7 9.4 2.7 10.8 0 17.3-8.6 17.4-16.9.2-.4.9-1.3 2.1-3.2.3-.5.7-2 .8-2.5 0-.2-.1-.5-.3-.7z"/><metadata><rdf:RDF xmlns:rdf="http://www.w3.org/1999/02/22-rdf-syntax-ns#" xmlns:rdfs="http://www.w3.org/2000/01/rdf-schema#" xmlns:dc="http://purl.org/dc/elements/1.1/"><rdf:Description about="https://iconscout.com/legal#licenses" dc:title="tweet" dc:description="tweet" dc:publisher="Iconscout" dc:date="2018-06-14" dc:format="image/svg+xml" dc:language="en"><dc:creator><rdf:Bag><rdf:li>Roundicons.com</rdf:li></rdf:Bag></dc:creator></rdf:Description></rdf:RDF></metadata></svg>