<?xml version="1.0" standalone="no"?>
<!DOCTYPE svg PUBLIC "-//W3C//DTD SVG 20010904//EN"
 "http://www.w3.org/TR/2001/REC-SVG-20010904/DTD/svg10.dtd">
<svg version="1.0" xmlns="http://www.w3.org/2000/svg"
 width="650.000000pt" height="650.000000pt" viewBox="0 0 650.000000 650.000000"
 preserveAspectRatio="xMidYMid meet">
<metadata>
Created by potrace 1.11, written by Peter Selinger 2001-2013
</metadata>
<g transform="translate(0.000000,650.000000) scale(0.100000,-0.100000)"
fill="#000000" stroke="none">
<path d="M3466 6073 c-6 -15 -8 -15 -16 -3 -6 8 -10 10 -10 4 0 -11 -35 -12
-46 -1 -4 4 -18 0 -32 -9 -13 -9 -21 -11 -18 -5 4 6 3 11 -3 11 -5 0 -12 -4
-16 -10 -4 -6 -15 -6 -30 0 -14 5 -25 6 -25 1 0 -12 -43 -8 -52 4 -5 6 -8 5
-8 -3 0 -7 -4 -10 -10 -7 -5 3 -10 2 -10 -4 0 -6 -6 -8 -13 -5 -8 3 -32 1 -55
-5 -25 -5 -44 -5 -48 0 -3 5 -11 9 -17 9 -8 0 -8 -3 1 -9 11 -6 9 -9 -7 -14
-13 -3 -21 1 -24 12 -4 12 -5 11 -6 -4 -1 -17 -3 -18 -11 -5 -6 9 -10 11 -10
3 0 -7 -7 -10 -17 -6 -11 5 -14 3 -8 -6 6 -10 3 -11 -15 -1 -12 7 -20 8 -16 2
5 -9 -38 -22 -76 -23 -10 0 -18 -5 -18 -11 0 -6 -10 -3 -22 8 -12 10 -18 13
-14 7 6 -12 -5 -18 -26 -14 -5 0 -8 -5 -8 -11 0 -9 -4 -8 -10 2 -7 12 -10 12
-10 1 0 -8 -6 -11 -16 -7 -10 4 -13 2 -8 -6 5 -7 2 -9 -8 -5 -9 3 -20 1 -25
-4 -5 -5 -25 -10 -45 -11 -20 -2 -34 -6 -31 -10 2 -5 -1 -8 -6 -8 -6 0 -11 5
-11 10 0 6 -6 5 -14 -2 -8 -7 -12 -16 -9 -20 2 -5 -1 -8 -6 -8 -6 0 -11 5 -11
10 0 6 -5 10 -11 10 -6 0 -9 -6 -6 -14 4 -11 -1 -13 -19 -10 -14 3 -24 0 -24
-7 0 -7 -3 -9 -6 -6 -4 3 -16 1 -28 -5 -11 -7 -23 -13 -26 -13 -3 0 -15 -6
-28 -13 -12 -7 -27 -10 -32 -7 -6 3 -10 2 -10 -4 0 -5 -9 -8 -19 -6 -15 3 -18
-1 -14 -13 5 -14 2 -14 -17 3 -13 11 -20 14 -16 7 7 -12 -17 -45 -27 -36 -3 3
-18 -2 -33 -12 -15 -10 -34 -19 -42 -20 -8 -2 -19 -9 -23 -16 -5 -7 -9 -8 -9
-3 0 7 -3 7 -8 0 -4 -5 -15 -16 -25 -24 -16 -12 -17 -12 -11 5 4 14 1 13 -15
-6 -11 -14 -21 -21 -21 -17 0 5 -7 1 -16 -7 -8 -9 -21 -16 -29 -16 -7 0 -16
-6 -18 -12 -4 -10 -6 -10 -6 0 -1 6 -5 12 -10 12 -5 0 -7 -10 -5 -22 2 -13 2
-17 -2 -10 -8 17 -25 15 -18 -3 8 -20 -1 -19 -22 2 -16 16 -16 16 -10 -5 6
-18 3 -22 -14 -22 -12 0 -18 -4 -15 -10 3 -5 -1 -10 -10 -10 -9 0 -13 -4 -10
-10 4 -6 -1 -7 -11 -3 -13 5 -15 3 -9 -7 6 -10 4 -12 -8 -7 -11 4 -17 1 -17
-8 0 -8 -8 -12 -20 -10 -11 2 -23 -1 -26 -7 -5 -7 -2 -8 7 -4 8 4 1 -3 -15
-16 -17 -13 -43 -35 -59 -50 -28 -26 -41 -32 -60 -29 -4 0 -6 -5 -5 -11 2 -8
-6 -12 -22 -10 -18 1 -21 -1 -11 -7 11 -7 9 -12 -10 -22 -13 -7 -25 -11 -27
-10 -2 2 -7 -1 -10 -5 -4 -4 -1 -4 7 1 9 5 12 3 9 -6 -3 -8 -11 -14 -19 -14
-8 -1 -13 -6 -12 -12 1 -6 -7 -19 -19 -29 -12 -11 -18 -14 -15 -7 4 6 3 14 -3
18 -5 3 -10 -3 -10 -13 0 -11 -7 -25 -16 -33 -13 -10 -17 -10 -25 2 -7 10 -8
7 -5 -12 4 -24 2 -26 -35 -24 -21 1 -36 -2 -33 -6 2 -4 13 -6 24 -4 11 2 20 0
20 -6 0 -5 -6 -9 -13 -9 -8 0 -22 -10 -33 -22 -19 -23 -19 -23 2 -5 32 27 36
20 6 -11 -15 -15 -30 -26 -34 -24 -5 2 -8 -2 -8 -8 0 -6 -5 -8 -12 -4 -8 5 -9
2 -4 -11 5 -15 4 -16 -8 -6 -12 10 -13 9 -9 -8 3 -13 1 -21 -6 -21 -7 0 -9 -4
-6 -10 4 -6 -1 -7 -11 -3 -13 5 -16 3 -11 -10 4 -11 2 -14 -8 -11 -8 4 -15 -3
-17 -17 -2 -13 -13 -29 -26 -35 -13 -6 -23 -14 -24 -18 0 -20 -12 -46 -20 -46
-5 0 -6 5 -2 12 5 7 3 8 -5 4 -7 -5 -10 -14 -7 -21 3 -8 -4 -17 -15 -20 -11
-4 -16 -11 -13 -17 5 -7 2 -9 -8 -6 -8 4 -15 0 -15 -8 0 -7 5 -10 10 -7 6 3 7
1 3 -5 -4 -7 -15 -12 -24 -13 -11 0 -12 -2 -4 -6 19 -7 4 -23 -16 -16 -15 6
-15 4 -4 -9 11 -14 10 -18 -6 -27 -11 -6 -23 -7 -27 -3 -4 4 -2 -4 5 -18 12
-22 12 -24 -3 -12 -13 11 -15 10 -13 -12 2 -15 0 -26 -4 -26 -4 0 -12 -12 -18
-26 -7 -14 -17 -22 -22 -19 -6 4 -7 -1 -3 -12 6 -16 5 -17 -12 -3 -17 14 -18
14 -6 -7 10 -19 9 -23 -4 -23 -8 0 -15 -5 -15 -11 0 -5 6 -7 13 -4 6 4 4 0 -6
-8 -10 -9 -19 -19 -20 -24 -1 -4 -5 -7 -9 -6 -4 2 -5 -6 -3 -17 2 -11 -2 -26
-10 -34 -8 -7 -11 -16 -8 -20 4 -3 1 -6 -5 -6 -5 0 -12 4 -14 9 -2 4 -11 1
-20 -8 -16 -16 -16 -17 2 -17 10 0 16 5 13 10 -3 5 -1 6 5 2 13 -8 -5 -46 -21
-46 -4 0 -6 -4 -3 -9 10 -15 -5 -41 -23 -41 -14 0 -14 -2 -1 -10 12 -7 12 -10
1 -10 -7 0 -11 -6 -7 -15 3 -10 -1 -15 -12 -16 -9 0 -12 -3 -5 -5 13 -6 6 -34
-9 -34 -5 0 -6 5 -2 12 4 6 3 8 -4 4 -6 -3 -15 2 -21 11 -6 10 -11 13 -11 7 0
-6 9 -19 20 -29 11 -10 17 -22 13 -28 -4 -6 -12 -3 -20 8 -7 11 -13 14 -13 8
0 -6 6 -16 14 -23 15 -12 10 -44 -5 -34 -5 3 -9 0 -9 -5 0 -6 5 -11 11 -11 5
0 7 -5 4 -10 -4 -6 -10 -8 -15 -5 -5 3 -11 1 -14 -4 -4 -5 -1 -13 5 -17 8 -5
9 -3 4 6 -5 8 -4 11 3 6 11 -6 -14 -67 -30 -74 -5 -2 -8 -8 -8 -13 0 -6 5 -7
12 -3 7 4 8 3 4 -5 -4 -6 -18 -9 -32 -7 -14 3 -22 1 -19 -5 4 -5 10 -7 14 -5
4 3 13 1 21 -5 9 -5 10 -9 3 -9 -7 0 -9 -9 -5 -22 5 -21 4 -22 -13 -8 -11 9
-16 10 -11 3 11 -19 -3 -36 -18 -24 -9 8 -13 7 -13 -4 0 -8 3 -13 5 -10 3 3
11 0 19 -6 10 -9 10 -15 2 -25 -9 -11 -8 -14 1 -14 10 0 9 -4 -1 -16 -7 -9
-14 -26 -16 -38 -5 -53 -10 -62 -33 -73 -21 -11 -22 -12 -3 -7 19 4 21 2 17
-18 -3 -13 -7 -34 -8 -48 -1 -18 -8 -25 -23 -25 -12 0 -25 -3 -29 -7 -3 -4 3
-6 14 -3 25 4 37 -9 26 -27 -5 -7 -9 -28 -10 -46 0 -18 -6 -38 -13 -45 -6 -6
-11 -16 -11 -21 0 -6 5 -4 10 4 8 12 10 9 8 -10 -3 -28 -27 -51 -43 -43 -6 4
-6 2 -2 -3 5 -5 14 -9 20 -9 7 0 11 -9 9 -19 -2 -12 1 -16 9 -10 8 4 10 3 5
-5 -4 -6 -12 -8 -18 -5 -7 4 -8 2 -4 -5 10 -16 15 -91 5 -86 -4 3 -10 -2 -13
-11 -4 -10 -2 -13 7 -8 9 5 9 4 0 -7 -7 -7 -13 -18 -13 -23 0 -6 5 -4 10 4 8
11 10 3 8 -30 -1 -25 -6 -48 -12 -52 -7 -5 -7 -8 2 -8 6 0 12 -5 12 -11 0 -5
-6 -7 -13 -3 -8 5 -7 2 2 -9 8 -10 11 -20 8 -24 -4 -3 -2 -14 3 -24 7 -12 6
-20 -2 -25 -7 -5 -8 -3 -3 6 5 9 4 11 -4 6 -8 -5 -9 -12 -3 -19 6 -7 12 -31
15 -55 4 -36 2 -42 -11 -37 -13 5 -12 2 2 -14 13 -14 16 -28 12 -46 -4 -15 -3
-24 2 -21 5 3 9 -1 9 -9 0 -18 -9 -19 -23 -5 -7 7 -11 6 -11 -4 0 -8 3 -13 7
-11 3 2 12 0 20 -5 12 -7 11 -12 -5 -31 -20 -22 -20 -22 0 -11 18 9 20 7 21
-19 1 -15 -2 -26 -7 -24 -10 7 -5 -22 6 -32 4 -4 5 -2 0 6 -5 9 -4 12 2 8 11
-7 11 -36 -2 -56 -5 -10 -4 -12 3 -7 11 7 18 -21 13 -48 -1 -5 4 -13 11 -17
10 -7 10 -9 1 -9 -7 0 -13 -4 -13 -10 0 -5 5 -9 11 -7 16 3 19 -44 5 -62 -8
-11 -8 -13 1 -8 6 4 14 3 18 -3 3 -5 1 -10 -6 -10 -7 0 -4 -7 7 -16 10 -8 13
-13 7 -9 -9 4 -11 1 -7 -9 3 -9 10 -14 15 -11 8 6 4 -28 -6 -44 -3 -5 0 -13 6
-17 8 -5 9 -3 4 7 -6 11 -5 11 5 2 15 -14 4 -36 -13 -26 -18 11 -38 12 -31 1
3 -5 9 -7 12 -4 3 3 14 -2 25 -11 11 -10 17 -12 13 -5 -4 7 -2 12 5 12 7 0 10
-11 7 -30 -3 -17 0 -34 5 -37 6 -4 7 -1 2 7 -6 9 -4 11 4 5 8 -4 11 -21 9 -40
-3 -25 0 -31 11 -27 9 3 12 1 8 -5 -4 -6 -1 -14 5 -17 7 -3 0 -3 -17 0 -30 4
-30 4 -5 -7 14 -7 28 -12 31 -11 3 0 6 -4 7 -11 0 -7 3 -21 5 -32 2 -11 0 -29
-6 -40 -9 -17 -8 -18 5 -8 17 15 29 7 21 -13 -3 -8 0 -14 7 -14 6 0 8 -4 5
-10 -3 -5 -1 -10 5 -10 8 0 7 -6 -1 -21 -6 -12 -7 -19 -2 -16 5 3 15 2 23 -4
13 -7 13 -9 0 -9 -10 0 -11 -3 -4 -8 14 -9 86 -152 76 -152 -4 0 2 -7 12 -15
11 -8 14 -15 8 -15 -7 0 -12 -5 -12 -11 0 -5 5 -7 12 -3 8 5 9 2 4 -11 -6 -16
-4 -16 10 -4 16 13 16 12 7 -6 -14 -30 -10 -49 12 -52 15 -2 16 -1 5 5 -17 8
-20 26 -6 39 5 4 6 3 3 -3 -4 -7 0 -17 8 -24 8 -7 12 -16 9 -21 -3 -5 0 -9 5
-9 6 0 10 -3 10 -7 -3 -21 3 -33 17 -33 8 0 12 -5 9 -10 -4 -6 -11 -7 -17 -4
-7 4 -8 2 -4 -5 4 -6 11 -9 16 -6 4 3 13 -2 20 -10 7 -8 9 -15 6 -15 -4 0 0
-7 8 -16 9 -8 14 -20 11 -25 -4 -5 1 -9 9 -9 9 0 16 -5 16 -11 0 -5 -4 -7 -10
-4 -6 3 -7 -1 -4 -10 4 -8 14 -14 23 -13 10 2 17 -5 19 -20 2 -12 8 -20 13
-17 5 4 9 -1 9 -10 0 -10 5 -13 13 -9 7 5 6 0 -3 -11 -9 -11 -10 -16 -2 -11 7
4 12 2 12 -4 0 -6 4 -9 9 -5 6 3 8 -4 6 -16 -3 -16 -1 -18 9 -10 9 8 13 6 13
-7 0 -9 -5 -21 -11 -25 -6 -5 0 -5 13 -2 19 6 23 4 18 -9 -3 -8 -2 -18 3 -21
4 -3 7 -16 5 -30 -2 -21 0 -23 12 -13 11 9 11 13 1 19 -7 5 -9 9 -4 9 5 0 3 7
-4 15 -7 8 -8 15 -3 15 5 0 16 -11 23 -25 7 -14 17 -25 22 -25 4 0 8 -4 8 -10
0 -5 -8 -7 -17 -4 -15 5 -15 4 -3 -4 9 -7 18 -7 26 -1 12 10 28 -13 33 -50 0
-5 9 -8 18 -7 9 0 22 -9 28 -21 7 -13 16 -20 21 -15 4 4 3 0 -4 -9 -12 -16 -7
-29 12 -29 6 0 4 5 -4 10 -13 8 -12 10 3 10 22 0 22 -16 0 -29 -24 -14 -7 -14
19 0 15 8 19 8 14 0 -4 -6 0 -14 8 -17 23 -9 86 -71 86 -84 0 -7 6 -10 14 -7
8 3 22 -4 33 -15 10 -12 12 -18 6 -14 -7 4 -13 3 -13 -2 0 -5 12 -12 28 -15
15 -3 39 -17 53 -31 15 -14 31 -22 35 -18 5 4 2 -2 -6 -12 -10 -13 -10 -17 -2
-12 16 9 16 -6 0 -24 -11 -12 -10 -12 3 -2 9 6 20 8 24 4 5 -4 5 -1 1 6 -10
18 0 15 42 -12 20 -12 41 -23 46 -24 5 0 16 -12 26 -27 12 -19 19 -23 23 -13
4 9 6 8 6 -4 1 -9 6 -20 13 -24 6 -4 8 -3 5 3 -3 5 1 10 9 10 8 0 13 -6 10
-13 -3 -8 0 -16 6 -20 6 -4 8 -3 4 4 -4 6 1 10 13 9 15 -1 17 -4 9 -14 -6 -8
-8 -16 -4 -20 3 -3 6 -1 6 5 0 7 5 12 11 12 5 0 7 -5 4 -11 -4 -6 0 -9 11 -7
13 2 18 -2 16 -12 -3 -12 -1 -12 9 -3 6 6 18 9 25 6 20 -8 17 -23 -3 -17 -15
5 -16 4 -3 -5 9 -6 18 -7 24 -1 10 10 41 -3 64 -27 8 -7 18 -11 23 -8 5 4 9 1
9 -5 0 -6 4 -9 9 -5 5 3 13 0 17 -6 4 -7 3 -9 -4 -5 -6 3 -13 2 -16 -3 -7 -11
13 -9 33 3 9 6 12 5 8 -1 -4 -6 0 -14 9 -17 10 -4 13 -2 9 7 -4 6 0 5 7 -5 8
-9 23 -18 33 -20 24 -4 45 -20 39 -30 -2 -4 0 -9 5 -12 5 -4 13 -1 17 5 5 8 3
9 -6 4 -9 -5 -11 -4 -6 3 11 19 29 14 24 -6 -6 -20 15 -23 41 -8 9 6 17 3 23
-8 5 -9 13 -14 18 -11 11 7 32 -30 22 -39 -3 -4 2 -4 12 0 14 5 15 9 4 15 -24
16 10 10 43 -6 16 -9 35 -13 41 -9 8 5 9 1 4 -11 -5 -13 -3 -15 6 -8 17 12 37
11 46 -3 11 -17 42 -25 42 -11 0 8 3 8 9 -2 5 -8 16 -11 24 -8 10 4 18 -1 22
-14 4 -10 14 -19 23 -19 15 0 15 2 2 10 -11 7 -7 8 14 6 16 -2 35 -11 43 -21
9 -14 13 -15 13 -4 0 11 2 12 9 0 6 -9 11 -10 15 -2 4 6 13 11 19 11 7 0 6 -4
-3 -10 -14 -9 14 -13 92 -13 10 0 15 -4 12 -8 -3 -5 12 -10 33 -11 65 -2 68
-3 67 -21 -1 -9 2 -14 7 -11 5 3 9 13 9 22 0 10 3 13 8 6 4 -5 26 -10 49 -10
22 1 39 -2 37 -5 -5 -9 26 -20 37 -13 19 11 49 12 55 2 4 -6 3 -8 -3 -5 -5 3
-10 -1 -10 -10 0 -13 4 -11 18 6 20 24 29 25 45 3 9 -12 13 -12 19 -2 6 9 4
11 -5 5 -8 -5 -11 -4 -6 3 4 6 13 9 21 6 8 -4 12 -11 8 -18 -4 -7 -2 -7 8 1
12 10 18 10 27 1 9 -9 12 -9 12 0 0 7 5 12 11 12 5 0 7 -5 3 -11 -4 -8 -1 -8
12 -1 11 5 25 7 33 4 7 -2 17 2 22 9 6 9 9 10 9 2 0 -14 40 -14 59 1 11 9 13
7 7 -12 -5 -14 -3 -22 4 -22 6 0 9 4 5 9 -3 6 3 15 14 20 14 8 20 8 24 -2 3
-9 8 -9 18 -1 8 5 21 10 29 9 8 -1 24 2 36 6 11 4 27 3 34 -1 9 -5 20 -5 27 1
7 6 16 8 22 5 5 -3 11 -3 14 1 2 5 2 3 1 -4 -2 -7 2 -15 9 -19 7 -4 9 -4 5 1
-4 4 -1 13 6 21 13 13 45 12 66 -1 5 -3 8 0 5 7 -3 8 3 14 17 15 35 3 57 9 63
15 10 10 60 -9 57 -21 -1 -7 3 -9 9 -6 8 5 8 10 0 18 -20 20 -12 24 39 23 27
-1 45 1 39 5 -7 4 -5 8 4 12 8 3 20 1 26 -4 6 -5 9 -6 6 -3 -3 4 7 13 21 21
30 15 47 18 24 3 -12 -7 -10 -9 7 -7 12 0 19 5 17 9 -5 8 10 12 35 9 7 -2 10
2 7 7 -4 6 4 9 19 8 13 -2 22 1 19 5 -3 5 1 9 10 9 8 0 22 3 32 7 13 5 15 3 9
-7 -5 -9 -4 -11 3 -6 7 4 12 15 12 24 0 15 2 15 10 2 7 -11 10 -11 10 -2 0 7
5 10 10 7 6 -3 10 -1 10 6 0 8 5 7 17 -2 9 -8 14 -9 10 -2 -8 13 27 28 43 18
6 -4 7 1 3 11 -4 12 -3 15 5 10 19 -12 53 -16 47 -5 -4 5 -11 7 -16 4 -5 -4
-9 -3 -9 2 0 4 11 13 24 19 21 10 23 9 18 -4 -3 -10 -1 -13 6 -8 7 4 12 14 12
23 0 13 3 13 15 3 9 -7 18 -10 22 -6 3 3 1 6 -6 6 -7 0 -9 5 -6 11 4 6 10 8
13 5 3 -3 14 1 24 11 10 9 21 14 24 10 3 -3 16 3 28 14 11 11 28 18 38 16 12
-3 15 0 11 10 -4 11 -1 14 8 11 8 -3 20 2 27 11 8 9 11 11 8 4 -7 -13 19 -12
31 2 4 4 2 5 -4 1 -7 -4 -13 -2 -13 3 0 6 7 12 15 12 29 3 33 4 42 13 5 5 3 6
-4 2 -7 -4 -13 -2 -13 3 0 6 9 11 20 11 11 0 20 5 20 11 0 5 5 7 10 4 6 -3 10
-1 10 5 0 6 5 8 10 5 6 -3 10 -1 10 4 0 6 7 11 16 11 9 0 12 5 8 12 -5 8 -2 9
9 5 12 -4 17 -1 18 11 0 9 3 12 5 5 3 -7 14 -2 30 14 13 13 29 21 34 18 6 -4
9 -1 8 6 -2 6 3 14 11 17 8 2 11 0 7 -6 -3 -6 -2 -13 3 -16 11 -7 9 13 -3 32
-7 11 -4 12 13 3 16 -9 19 -9 16 1 -3 7 4 19 16 26 15 10 19 10 14 1 -6 -8 -4
-10 4 -5 7 5 10 14 8 20 -3 7 1 13 9 14 8 1 21 3 29 4 12 1 12 4 2 17 -9 11
-9 13 0 7 7 -4 20 2 30 14 10 11 25 20 35 20 10 0 17 5 15 12 -1 7 8 17 21 23
14 6 20 15 17 25 -4 8 -3 11 1 7 4 -4 13 1 20 11 12 15 15 15 24 2 9 -12 10
-11 5 7 -3 12 -1 25 6 29 8 5 10 3 4 -7 -4 -8 5 1 22 18 24 26 32 30 43 20 10
-9 11 -9 6 1 -9 15 2 54 13 47 4 -2 14 7 21 20 7 13 17 22 21 20 4 -3 10 4 14
15 3 11 11 20 16 20 6 0 7 4 4 10 -3 6 1 7 9 4 11 -4 16 0 16 10 0 9 5 16 10
16 6 0 10 7 10 16 0 8 5 12 10 9 9 -6 15 8 11 29 -1 5 5 3 14 -4 13 -11 15
-10 10 2 -4 9 6 28 25 47 17 17 28 31 23 31 -4 0 0 5 10 11 9 6 15 14 12 20
-4 5 -1 9 4 9 6 0 11 7 11 15 0 8 4 15 10 15 5 0 7 -8 4 -18 -5 -13 -4 -14 4
-3 5 7 9 21 7 30 -1 9 9 26 22 38 13 12 24 26 26 30 1 5 5 7 8 6 4 -1 5 7 2
17 -3 12 0 20 6 20 7 0 9 -5 5 -12 -4 -6 -3 -8 4 -4 6 3 9 15 7 26 -4 18 6 25
29 21 5 -1 4 4 -2 12 -10 11 -9 17 3 27 8 7 15 19 15 26 0 8 5 14 10 14 6 0
10 7 10 16 0 8 4 13 8 10 4 -2 9 5 9 16 1 12 7 24 13 28 7 4 12 11 13 16 1 5
5 8 8 7 4 -1 6 8 5 20 0 12 4 21 11 20 8 -2 10 4 6 14 -5 12 -3 14 7 8 9 -5
11 -4 6 4 -4 6 -2 19 6 28 9 12 9 15 1 9 -9 -5 -11 -2 -7 8 3 9 11 13 17 9 6
-3 7 -1 3 5 -4 7 -4 17 0 23 4 8 9 7 15 -2 6 -10 9 -8 9 9 0 16 -4 21 -12 16
-7 -4 -5 2 5 13 9 11 17 26 17 34 0 8 9 29 20 47 11 18 18 37 15 42 -3 5 1 14
8 22 8 7 13 22 11 31 -2 13 2 17 13 13 13 -5 13 -4 4 8 -14 17 -11 37 9 53 12
10 13 12 1 13 -9 0 -6 7 9 20 13 11 18 20 12 20 -7 0 -12 9 -12 20 0 11 5 20
12 20 6 0 8 3 5 7 -4 3 0 17 9 31 9 13 11 21 4 17 -14 -9 -4 31 14 54 9 12 8
13 -4 6 -12 -7 -13 -6 -5 6 6 8 12 28 14 44 2 17 8 33 15 37 8 6 7 8 -2 8 -10
0 -10 5 -2 20 6 10 9 25 8 32 -2 7 3 12 10 10 8 -1 11 2 7 8 -3 6 -11 8 -16 5
-5 -4 -9 -1 -9 4 0 6 3 11 8 11 4 0 13 10 21 23 13 20 13 21 -2 8 -19 -15 -24
-2 -6 16 7 7 7 13 0 17 -5 4 -8 13 -5 21 4 8 9 13 13 10 4 -2 5 10 3 27 -4 24
-2 29 9 23 11 -7 12 -6 3 6 -7 8 -10 39 -7 79 2 36 4 73 4 82 0 9 7 22 15 29
13 10 12 14 -3 32 -13 15 -15 21 -5 24 6 3 9 10 5 16 -13 21 -14 49 -1 41 7
-5 8 -3 3 7 -13 20 -13 103 -1 111 7 5 5 8 -5 8 -17 0 -19 36 -3 61 4 8 3 9
-4 5 -16 -10 -15 7 1 23 10 10 9 12 -2 9 -8 -2 -17 9 -22 25 -6 24 -4 29 15
37 13 5 26 16 30 25 3 9 10 13 16 10 5 -3 7 0 4 8 -3 8 0 18 7 23 8 5 10 3 4
-6 -5 -9 -4 -11 4 -6 9 6 9 11 -1 24 -11 13 -10 15 5 9 11 -4 16 -3 12 3 -3 5
-1 19 5 30 8 15 8 20 -2 20 -10 0 -10 2 0 8 7 5 10 22 8 40 -2 19 1 32 8 32 6
0 4 5 -4 10 -12 8 -12 10 -1 10 10 0 11 3 2 14 -6 7 -9 21 -5 30 4 10 1 16 -7
16 -11 0 -11 3 1 10 12 8 12 10 1 10 -9 0 -12 9 -9 28 2 16 -2 34 -10 41 -7 8
-11 22 -9 32 3 11 1 19 -5 19 -5 0 -6 5 -3 10 3 6 1 10 -5 10 -6 0 -9 4 -6 9
3 5 -1 12 -10 15 -9 4 -14 9 -11 12 7 7 -29 44 -43 44 -5 0 -10 7 -10 16 0 8
-4 13 -8 10 -5 -3 -20 5 -33 17 -13 12 -25 21 -26 20 -11 -10 -23 1 -23 20 0
18 -2 19 -10 7 -8 -13 -10 -12 -11 5 -1 11 -1 26 0 34 2 8 -2 10 -10 5 -9 -5
-10 -2 -6 9 3 10 2 17 -2 17 -5 0 -8 11 -7 24 2 18 -1 23 -12 18 -11 -4 -14
-1 -9 11 3 9 2 19 -3 22 -6 4 -10 13 -10 21 0 9 -7 22 -15 30 -21 22 -19 40 3
23 9 -7 7 -2 -5 12 -13 14 -23 34 -23 45 0 16 -2 17 -10 4 -8 -12 -10 -9 -10
12 0 15 -8 32 -17 37 -10 6 -12 11 -5 11 7 0 4 8 -9 21 -12 12 -19 29 -16 40
3 10 2 17 -3 14 -9 -6 -27 14 -32 35 -2 8 -7 18 -13 23 -6 4 -4 11 5 18 13 9
12 10 -3 5 -13 -4 -20 0 -24 14 -3 11 -10 20 -17 20 -6 0 -4 5 4 10 13 8 13
10 -2 10 -9 0 -20 5 -24 12 -4 7 -3 8 4 4 8 -5 10 -2 6 8 -3 9 -11 14 -17 13
-7 -1 -11 4 -9 11 1 6 -4 12 -10 12 -9 0 -8 4 2 10 11 7 12 10 2 10 -21 0 -45
27 -29 33 6 3 3 6 -7 6 -11 1 -16 4 -13 8 4 3 -2 12 -13 20 -11 8 -20 21 -20
29 0 8 -4 14 -10 14 -5 0 -10 7 -10 16 0 9 -5 12 -12 8 -8 -5 -9 -2 -5 9 4 11
1 17 -8 17 -9 0 -15 9 -15 22 0 12 -3 19 -6 15 -7 -6 -34 16 -34 28 0 10 -28
35 -39 35 -5 0 -8 9 -6 20 2 11 0 18 -5 15 -13 -8 -40 6 -40 21 0 8 -9 22 -19
31 -11 9 -17 21 -14 27 4 6 -2 4 -12 -4 -11 -9 -16 -10 -11 -2 4 7 2 12 -6 12
-9 0 -9 3 2 10 12 8 10 10 -8 10 -13 0 -20 4 -17 10 3 6 -1 10 -10 10 -9 0
-13 5 -10 10 3 6 -1 10 -9 10 -9 0 -16 7 -16 17 0 9 -3 14 -6 10 -3 -3 -18 5
-32 19 -15 13 -30 24 -34 24 -5 0 -8 5 -8 11 0 6 7 8 16 5 9 -3 12 -2 9 4 -4
6 -12 10 -18 9 -28 -3 -48 2 -42 11 3 6 -1 10 -10 10 -9 0 -14 4 -11 9 3 5 -4
11 -15 14 -13 4 -18 10 -13 18 4 8 3 10 -4 5 -7 -4 -12 -1 -12 6 0 9 -3 9 -10
-2 -8 -13 -10 -12 -10 4 0 11 -3 16 -6 13 -4 -4 -15 3 -25 15 -11 11 -19 17
-19 13 0 -4 -11 4 -25 19 -14 15 -25 22 -25 17 0 -6 -9 -2 -20 9 -11 11 -26
20 -34 20 -7 0 -20 8 -27 17 -12 15 -12 16 1 8 8 -4 12 -4 7 0 -7 9 -23 13
-58 17 -10 1 -15 8 -11 17 4 10 1 13 -10 8 -10 -3 -19 0 -22 9 -3 8 -11 13
-18 12 -7 -2 -12 3 -10 11 2 8 -3 11 -13 8 -8 -4 -15 -3 -15 1 0 4 -10 9 -22
9 -13 1 -24 7 -26 13 -2 5 -8 8 -13 4 -5 -3 -9 -1 -9 5 0 5 6 12 13 14 6 3 -1
4 -18 2 -18 -1 -35 4 -42 14 -11 14 -12 14 -13 1 0 -13 -1 -13 -10 0 -5 8 -15
15 -22 15 -7 1 -12 6 -11 12 1 6 -8 10 -22 8 -13 -1 -22 2 -19 6 3 5 -4 9 -15
9 -12 0 -21 5 -21 10 0 6 -9 10 -20 10 -11 0 -20 6 -20 13 0 8 -4 7 -10 -3 -8
-12 -10 -12 -10 -1 0 8 -3 11 -7 8 -3 -4 -12 1 -20 11 -8 9 -12 11 -8 4 5 -10
1 -10 -22 0 -15 7 -30 15 -33 18 -3 3 -14 7 -25 8 -11 2 -23 9 -26 14 -4 6 -9
5 -12 -3 -4 -10 -6 -10 -6 -1 -1 6 -8 12 -17 12 -9 0 -12 5 -8 13 6 9 5 9 -8
0 -19 -17 -31 -5 -16 16 10 13 10 14 -2 4 -17 -15 -74 -18 -65 -3 4 6 -8 10
-29 10 -20 0 -36 4 -36 9 0 5 -11 8 -25 6 -14 -1 -28 2 -31 7 -3 4 -9 6 -14 3
-5 -3 -11 -1 -15 5 -4 6 -11 8 -16 4 -5 -3 -21 1 -34 10 -16 10 -26 12 -30 5
-5 -7 -11 -6 -21 2 -8 6 -17 9 -21 5 -3 -3 -17 1 -31 10 -13 9 -21 11 -18 5 4
-6 0 -11 -8 -11 -9 0 -16 6 -16 13 0 8 -4 7 -10 -3 -6 -9 -10 -10 -10 -3 0 7
-10 10 -27 7 -24 -5 -25 -3 -12 13 13 17 13 17 -7 1 -24 -21 -34 -23 -34 -7 0
5 5 7 12 3 7 -4 8 -3 4 5 -5 8 -12 9 -20 2 -14 -12 -56 -10 -56 2 0 5 -7 3
-17 -4 -18 -16 -16 -16 -50 6 -14 9 -22 12 -19 6 5 -7 -1 -11 -14 -11 -11 0
-23 7 -27 16 -4 12 -8 13 -13 3 -12 -18 -60 -21 -53 -3 3 8 3 14 0 14 -3 0 -8
-8 -11 -17z m-2686 -2013 c0 -5 -5 -10 -11 -10 -5 0 -7 5 -4 10 3 6 8 10 11
10 2 0 4 -4 4 -10z m5375 -809 c3 -5 1 -12 -5 -16 -5 -3 -10 1 -10 9 0 18 6
21 15 7z m-2970 -2661 c3 -5 1 -10 -4 -10 -6 0 -11 5 -11 10 0 6 2 10 4 10 3
0 8 -4 11 -10z"/>
<path d="M2989 6063 c-13 -16 -12 -17 4 -4 16 13 21 21 13 21 -2 0 -10 -8 -17
-17z"/>
<path d="M3108 6053 c7 -3 16 -2 19 1 4 3 -2 6 -13 5 -11 0 -14 -3 -6 -6z"/>
<path d="M2416 5887 c3 -10 9 -15 12 -12 3 3 0 11 -7 18 -10 9 -11 8 -5 -6z"/>
<path d="M2376 5878 c3 -5 10 -6 15 -3 13 9 11 12 -6 12 -8 0 -12 -4 -9 -9z"/>
<path d="M2055 5720 c-3 -5 -1 -10 4 -10 6 0 11 5 11 10 0 6 -2 10 -4 10 -3 0
-8 -4 -11 -10z"/>
<path d="M1740 5495 c-7 -8 -16 -12 -21 -9 -5 3 -9 0 -9 -5 0 -17 15 -13 35 9
10 11 16 20 13 20 -3 0 -11 -7 -18 -15z"/>
<path d="M1620 5460 c-9 -6 -10 -10 -3 -10 6 0 15 5 18 10 8 12 4 12 -15 0z"/>
<path d="M1500 5386 c0 -2 8 -10 18 -17 15 -13 16 -12 3 4 -13 16 -21 21 -21
13z"/>
<path d="M1570 5360 c0 -5 5 -10 11 -10 5 0 7 5 4 10 -3 6 -8 10 -11 10 -2 0
-4 -4 -4 -10z"/>
<path d="M1220 5266 c0 -2 8 -10 18 -17 15 -13 16 -12 3 4 -13 16 -21 21 -21
13z"/>
<path d="M5430 5211 c0 -6 4 -13 10 -16 6 -3 7 1 4 9 -7 18 -14 21 -14 7z"/>
<path d="M1376 5201 c9 -9 34 -9 34 -1 0 5 -9 8 -20 7 -10 -1 -17 -3 -14 -6z"/>
<path d="M1300 5180 c-8 -5 -10 -10 -5 -10 6 0 17 5 25 10 8 5 11 10 5 10 -5
0 -17 -5 -25 -10z"/>
<path d="M1190 5060 c0 -5 5 -10 11 -10 5 0 7 5 4 10 -3 6 -8 10 -11 10 -2 0
-4 -4 -4 -10z"/>
<path d="M1236 5058 c3 -5 10 -6 15 -3 13 9 11 12 -6 12 -8 0 -12 -4 -9 -9z"/>
<path d="M1276 5048 c3 -5 10 -6 15 -3 13 9 11 12 -6 12 -8 0 -12 -4 -9 -9z"/>
<path d="M1235 5021 c-3 -5 -2 -12 3 -15 5 -3 9 1 9 9 0 17 -3 19 -12 6z"/>
<path d="M1170 5000 c0 -5 5 -10 11 -10 5 0 7 5 4 10 -3 6 -8 10 -11 10 -2 0
-4 -4 -4 -10z"/>
<path d="M1127 4959 c7 -7 15 -10 18 -7 3 3 -2 9 -12 12 -14 6 -15 5 -6 -5z"/>
<path d="M1175 4960 c-3 -5 -1 -10 4 -10 6 0 11 5 11 10 0 6 -2 10 -4 10 -3 0
-8 -4 -11 -10z"/>
<path d="M1093 4875 c0 -8 4 -12 9 -9 5 3 6 10 3 15 -9 13 -12 11 -12 -6z"/>
<path d="M1056 4782 c-3 -5 1 -9 9 -9 8 0 12 4 9 9 -3 4 -7 8 -9 8 -2 0 -6 -4
-9 -8z"/>
<path d="M970 4720 c0 -5 5 -10 11 -10 5 0 7 5 4 10 -3 6 -8 10 -11 10 -2 0
-4 -4 -4 -10z"/>
<path d="M936 4678 c3 -4 11 -5 19 -1 21 7 19 12 -4 10 -11 0 -18 -5 -15 -9z"/>
<path d="M786 4658 c3 -5 10 -6 15 -3 13 9 11 12 -6 12 -8 0 -12 -4 -9 -9z"/>
<path d="M875 4621 c-3 -5 -2 -12 3 -15 5 -3 9 1 9 9 0 17 -3 19 -12 6z"/>
<path d="M935 4600 c-3 -5 -1 -10 4 -10 6 0 11 5 11 10 0 6 -2 10 -4 10 -3 0
-8 -4 -11 -10z"/>
<path d="M857 4535 c-4 -8 -3 -16 1 -19 4 -3 9 4 9 15 2 23 -3 25 -10 4z"/>
<path d="M819 4488 c-5 -18 -6 -38 -1 -34 7 8 12 36 6 36 -2 0 -4 -1 -5 -2z"/>
<path d="M904 4472 c3 -5 0 -13 -6 -15 -9 -4 -10 -6 -1 -6 17 -1 25 16 12 25
-7 4 -9 3 -5 -4z"/>
<path d="M775 4451 c-3 -5 -2 -12 3 -15 5 -3 9 1 9 9 0 17 -3 19 -12 6z"/>
<path d="M775 4361 c-4 -7 -1 -10 7 -9 7 2 12 -5 11 -16 -1 -13 2 -15 10 -7 8
8 7 15 -5 27 -11 11 -18 13 -23 5z"/>
<path d="M736 4278 c3 -5 10 -6 15 -3 13 9 11 12 -6 12 -8 0 -12 -4 -9 -9z"/>
<path d="M775 4280 c-3 -5 -1 -10 4 -10 6 0 11 5 11 10 0 6 -2 10 -4 10 -3 0
-8 -4 -11 -10z"/>
<path d="M695 4239 c-3 -4 2 -6 10 -5 21 3 28 13 10 13 -9 0 -18 -4 -20 -8z"/>
<path d="M796 4213 c-6 -14 -5 -15 5 -6 7 7 10 15 7 18 -3 3 -9 -2 -12 -12z"/>
<path d="M756 4182 c-3 -5 1 -9 9 -9 8 0 12 4 9 9 -3 4 -7 8 -9 8 -2 0 -6 -4
-9 -8z"/>
<path d="M693 4155 c0 -8 4 -12 9 -9 5 3 6 10 3 15 -9 13 -12 11 -12 -6z"/>
<path d="M640 4120 c-12 -7 -10 -9 7 -7 12 0 19 5 17 9 -6 10 -6 10 -24 -2z"/>
<path d="M695 4120 c-3 -5 -1 -10 4 -10 6 0 11 5 11 10 0 6 -2 10 -4 10 -3 0
-8 -4 -11 -10z"/>
<path d="M629 4063 c-13 -16 -12 -17 4 -4 9 7 17 15 17 17 0 8 -8 3 -21 -13z"/>
<path d="M670 4060 c0 -5 5 -10 11 -10 5 0 7 5 4 10 -3 6 -8 10 -11 10 -2 0
-4 -4 -4 -10z"/>
<path d="M734 4001 c4 -6 1 -14 -7 -17 -7 -2 -14 -11 -14 -19 0 -20 2 -19 21
9 11 18 13 27 4 32 -7 4 -8 3 -4 -5z"/>
<path d="M619 3988 c-5 -18 -6 -38 -1 -34 7 8 12 36 6 36 -2 0 -4 -1 -5 -2z"/>
<path d="M590 3840 c0 -5 5 -10 11 -10 5 0 7 5 4 10 -3 6 -8 10 -11 10 -2 0
-4 -4 -4 -10z"/>
<path d="M690 3840 c0 -5 5 -10 11 -10 5 0 7 5 4 10 -3 6 -8 10 -11 10 -2 0
-4 -4 -4 -10z"/>
<path d="M660 3826 c0 -2 8 -10 18 -17 15 -13 16 -12 3 4 -13 16 -21 21 -21
13z"/>
<path d="M657 3753 c-10 -9 -9 -23 1 -23 5 0 9 7 9 15 0 17 -1 18 -10 8z"/>
<path d="M674 3709 c-3 -6 -2 -15 3 -20 5 -5 9 -1 9 11 0 23 -2 24 -12 9z"/>
<path d="M636 3698 c3 -5 10 -6 15 -3 13 9 11 12 -6 12 -8 0 -12 -4 -9 -9z"/>
<path d="M575 3680 c-3 -5 -1 -10 4 -10 6 0 11 5 11 10 0 6 -2 10 -4 10 -3 0
-8 -4 -11 -10z"/>
<path d="M655 3669 c-4 -6 -5 -12 -2 -15 2 -3 7 2 10 11 7 17 1 20 -8 4z"/>
<path d="M515 3660 c-3 -5 -1 -10 4 -10 6 0 11 5 11 10 0 6 -2 10 -4 10 -3 0
-8 -4 -11 -10z"/>
<path d="M650 3620 c0 -5 5 -10 11 -10 5 0 7 5 4 10 -3 6 -8 10 -11 10 -2 0
-4 -4 -4 -10z"/>
<path d="M514 3602 c4 -3 14 -7 22 -8 9 -1 13 0 10 4 -4 3 -14 7 -22 8 -9 1
-13 0 -10 -4z"/>
<path d="M435 3549 c-4 -6 -5 -12 -2 -15 2 -3 7 2 10 11 7 17 1 20 -8 4z"/>
<path d="M534 3522 c4 -3 14 -7 22 -8 9 -1 13 0 10 4 -4 3 -14 7 -22 8 -9 1
-13 0 -10 -4z"/>
<path d="M635 3521 c-3 -5 -2 -12 3 -15 5 -3 9 1 9 9 0 17 -3 19 -12 6z"/>
<path d="M659 3498 c-5 -18 -6 -38 -1 -34 7 8 12 36 6 36 -2 0 -4 -1 -5 -2z"/>
<path d="M580 3466 c0 -2 8 -10 18 -17 15 -13 16 -12 3 4 -13 16 -21 21 -21
13z"/>
<path d="M590 3421 c0 -6 4 -13 10 -16 6 -3 7 1 4 9 -7 18 -14 21 -14 7z"/>
<path d="M575 3360 c3 -5 8 -10 11 -10 2 0 4 5 4 10 0 6 -5 10 -11 10 -5 0 -7
-4 -4 -10z"/>
<path d="M475 3351 c-3 -5 -2 -12 3 -15 5 -3 9 1 9 9 0 17 -3 19 -12 6z"/>
<path d="M638 3353 c7 -3 16 -2 19 1 4 3 -2 6 -13 5 -11 0 -14 -3 -6 -6z"/>
<path d="M530 3319 c0 -5 5 -7 10 -4 6 3 10 8 10 11 0 2 -4 4 -10 4 -5 0 -10
-5 -10 -11z"/>
<path d="M610 3301 c0 -6 4 -13 10 -16 6 -3 7 1 4 9 -7 18 -14 21 -14 7z"/>
<path d="M642 3264 c-7 -8 -8 -14 -3 -14 10 0 25 19 20 25 -2 1 -10 -3 -17
-11z"/>
<path d="M535 3240 c3 -5 8 -10 11 -10 2 0 4 5 4 10 0 6 -5 10 -11 10 -5 0 -7
-4 -4 -10z"/>
<path d="M652 3180 c0 -14 2 -19 5 -12 2 6 2 18 0 25 -3 6 -5 1 -5 -13z"/>
<path d="M536 3158 c3 -5 10 -6 15 -3 13 9 11 12 -6 12 -8 0 -12 -4 -9 -9z"/>
<path d="M634 3140 c0 -13 4 -16 10 -10 7 7 7 13 0 20 -6 6 -10 3 -10 -10z"/>
<path d="M536 3122 c-3 -5 1 -9 9 -9 8 0 12 4 9 9 -3 4 -7 8 -9 8 -2 0 -6 -4
-9 -8z"/>
<path d="M570 3080 c0 -5 5 -10 11 -10 5 0 7 5 4 10 -3 6 -8 10 -11 10 -2 0
-4 -4 -4 -10z"/>
<path d="M659 3088 c-5 -16 -4 -46 2 -42 4 2 7 13 6 24 -1 17 -5 26 -8 18z"/>
<path d="M575 3040 c3 -5 8 -10 11 -10 2 0 4 5 4 10 0 6 -5 10 -11 10 -5 0 -7
-4 -4 -10z"/>
<path d="M655 2980 c-3 -6 1 -7 9 -4 18 7 21 14 7 14 -6 0 -13 -4 -16 -10z"/>
<path d="M534 2936 c1 -8 5 -18 8 -22 4 -3 5 1 4 10 -1 8 -5 18 -8 22 -4 3 -5
-1 -4 -10z"/>
<path d="M575 2920 c-3 -5 -1 -10 4 -10 6 0 11 5 11 10 0 6 -2 10 -4 10 -3 0
-8 -4 -11 -10z"/>
<path d="M340 2906 c0 -2 8 -10 18 -17 15 -13 16 -12 3 4 -13 16 -21 21 -21
13z"/>
<path d="M575 2880 c3 -5 8 -10 11 -10 2 0 4 5 4 10 0 6 -5 10 -11 10 -5 0 -7
-4 -4 -10z"/>
<path d="M655 2860 c-2 -3 5 -7 16 -7 10 -1 19 2 19 6 0 9 -29 10 -35 1z"/>
<path d="M550 2839 c0 -5 5 -7 10 -4 6 3 10 8 10 11 0 2 -4 4 -10 4 -5 0 -10
-5 -10 -11z"/>
<path d="M670 2786 c0 -2 7 -7 16 -10 8 -3 12 -2 9 4 -6 10 -25 14 -25 6z"/>
<path d="M525 2700 c-3 -6 1 -7 9 -4 18 7 21 14 7 14 -6 0 -13 -4 -16 -10z"/>
<path d="M586 2702 c-3 -5 1 -9 9 -9 8 0 12 4 9 9 -3 4 -7 8 -9 8 -2 0 -6 -4
-9 -8z"/>
<path d="M630 2701 c0 -6 4 -13 10 -16 6 -3 7 1 4 9 -7 18 -14 21 -14 7z"/>
<path d="M676 2693 c-6 -14 -5 -15 5 -6 7 7 10 15 7 18 -3 3 -9 -2 -12 -12z"/>
<path d="M574 2642 c4 -3 14 -7 22 -8 9 -1 13 0 10 4 -4 3 -14 7 -22 8 -9 1
-13 0 -10 -4z"/>
<path d="M675 2641 c-3 -5 -2 -12 3 -15 5 -3 9 1 9 9 0 17 -3 19 -12 6z"/>
<path d="M716 2598 c3 -5 10 -6 15 -3 13 9 11 12 -6 12 -8 0 -12 -4 -9 -9z"/>
<path d="M635 2570 c-4 -6 -11 -7 -17 -4 -7 4 -8 2 -4 -5 6 -9 11 -9 22 0 14
11 18 19 10 19 -3 0 -8 -5 -11 -10z"/>
<path d="M733 2495 c0 -8 4 -12 9 -9 4 3 8 9 8 15 0 5 -4 9 -8 9 -5 0 -9 -7
-9 -15z"/>
<path d="M614 2476 c1 -8 5 -18 8 -22 4 -3 5 1 4 10 -1 8 -5 18 -8 22 -4 3 -5
-1 -4 -10z"/>
<path d="M710 2460 c0 -5 5 -10 11 -10 5 0 7 5 4 10 -3 6 -8 10 -11 10 -2 0
-4 -4 -4 -10z"/>
<path d="M753 2443 c4 -3 1 -13 -6 -22 -11 -14 -10 -14 5 -2 16 12 16 31 1 31
-4 0 -3 -3 0 -7z"/>
<path d="M607 2419 c7 -7 15 -10 18 -7 3 3 -2 9 -12 12 -14 6 -15 5 -6 -5z"/>
<path d="M715 2420 c3 -5 8 -10 11 -10 2 0 4 5 4 10 0 6 -5 10 -11 10 -5 0 -7
-4 -4 -10z"/>
<path d="M796 2362 c-3 -5 1 -9 9 -9 8 0 12 4 9 9 -3 4 -7 8 -9 8 -2 0 -6 -4
-9 -8z"/>
<path d="M590 2340 c0 -5 5 -10 11 -10 5 0 7 5 4 10 -3 6 -8 10 -11 10 -2 0
-4 -4 -4 -10z"/>
<path d="M735 2320 c-3 -5 -1 -10 4 -10 6 0 11 5 11 10 0 6 -2 10 -4 10 -3 0
-8 -4 -11 -10z"/>
<path d="M835 2321 c-3 -5 -2 -12 3 -15 5 -3 9 1 9 9 0 17 -3 19 -12 6z"/>
<path d="M730 2279 c0 -5 5 -7 10 -4 6 3 10 8 10 11 0 2 -4 4 -10 4 -5 0 -10
-5 -10 -11z"/>
<path d="M815 2269 c-4 -6 -5 -12 -2 -15 2 -3 7 2 10 11 7 17 1 20 -8 4z"/>
<path d="M686 2238 c3 -5 10 -6 15 -3 13 9 11 12 -6 12 -8 0 -12 -4 -9 -9z"/>
<path d="M861 2224 c0 -11 3 -14 6 -6 3 7 2 16 -1 19 -3 4 -6 -2 -5 -13z"/>
<path d="M799 2213 c-13 -16 -12 -17 4 -4 9 7 17 15 17 17 0 8 -8 3 -21 -13z"/>
<path d="M830 2220 c0 -5 5 -10 11 -10 5 0 7 5 4 10 -3 6 -8 10 -11 10 -2 0
-4 -4 -4 -10z"/>
<path d="M715 2180 c3 -5 8 -10 11 -10 2 0 4 5 4 10 0 6 -5 10 -11 10 -5 0 -7
-4 -4 -10z"/>
<path d="M820 2186 c0 -2 8 -10 18 -17 15 -13 16 -12 3 4 -13 16 -21 21 -21
13z"/>
<path d="M909 2143 c8 -16 8 -23 -2 -26 -9 -4 -9 -6 0 -6 20 -2 23 15 7 35
-14 18 -15 18 -5 -3z"/>
<path d="M886 2058 c3 -5 10 -6 15 -3 13 9 11 12 -6 12 -8 0 -12 -4 -9 -9z"/>
<path d="M935 2050 c-3 -6 1 -7 9 -4 18 7 21 14 7 14 -6 0 -13 -4 -16 -10z"/>
<path d="M815 2040 c3 -5 8 -10 11 -10 2 0 4 5 4 10 0 6 -5 10 -11 10 -5 0 -7
-4 -4 -10z"/>
<path d="M960 2021 c0 -11 4 -22 9 -25 4 -3 6 6 3 19 -5 30 -12 33 -12 6z"/>
<path d="M636 1998 c3 -5 10 -6 15 -3 13 9 11 12 -6 12 -8 0 -12 -4 -9 -9z"/>
<path d="M833 1965 c0 -8 4 -12 9 -9 5 3 6 10 3 15 -9 13 -12 11 -12 -6z"/>
<path d="M909 1943 c-13 -16 -12 -17 4 -4 9 7 17 15 17 17 0 8 -8 3 -21 -13z"/>
<path d="M974 1949 c-3 -6 -2 -15 3 -20 5 -5 9 -1 9 11 0 23 -2 24 -12 9z"/>
<path d="M834 1916 c1 -8 5 -18 8 -22 4 -3 5 1 4 10 -1 8 -5 18 -8 22 -4 3 -5
-1 -4 -10z"/>
<path d="M875 1879 c-3 -4 2 -6 10 -5 21 3 28 13 10 13 -9 0 -18 -4 -20 -8z"/>
<path d="M995 1870 c-4 -6 -11 -7 -17 -4 -7 4 -8 2 -4 -5 6 -9 11 -9 22 0 14
11 18 19 10 19 -3 0 -8 -5 -11 -10z"/>
<path d="M933 1845 c0 -8 4 -12 9 -9 5 3 6 10 3 15 -9 13 -12 11 -12 -6z"/>
<path d="M1090 1810 c0 -5 5 -10 11 -10 5 0 7 5 4 10 -3 6 -8 10 -11 10 -2 0
-4 -4 -4 -10z"/>
<path d="M1093 1775 c0 -8 4 -12 9 -9 5 3 6 10 3 15 -9 13 -12 11 -12 -6z"/>
<path d="M1094 1742 c4 -3 14 -7 22 -8 9 -1 13 0 10 4 -4 3 -14 7 -22 8 -9 1
-13 0 -10 -4z"/>
<path d="M973 1715 c0 -8 4 -12 9 -9 5 3 6 10 3 15 -9 13 -12 11 -12 -6z"/>
<path d="M1171 1694 c0 -11 3 -14 6 -6 3 7 2 16 -1 19 -3 4 -6 -2 -5 -13z"/>
<path d="M994 1682 c4 -3 14 -7 22 -8 9 -1 13 0 10 4 -4 3 -14 7 -22 8 -9 1
-13 0 -10 -4z"/>
<path d="M1054 1642 c4 -3 14 -7 22 -8 9 -1 13 0 10 4 -4 3 -14 7 -22 8 -9 1
-13 0 -10 -4z"/>
<path d="M1094 1598 c-4 -7 -4 -10 1 -6 4 4 15 2 24 -5 14 -11 14 -10 2 6 -16
20 -18 21 -27 5z"/>
<path d="M1206 1578 c3 -5 10 -6 15 -3 13 9 11 12 -6 12 -8 0 -12 -4 -9 -9z"/>
<path d="M910 1541 c0 -6 4 -13 10 -16 6 -3 7 1 4 9 -7 18 -14 21 -14 7z"/>
<path d="M1230 1501 c0 -6 4 -13 10 -16 6 -3 7 1 4 9 -7 18 -14 21 -14 7z"/>
<path d="M1327 1459 c7 -7 15 -10 18 -7 3 3 -2 9 -12 12 -14 6 -15 5 -6 -5z"/>
<path d="M1401 1411 c-9 -6 -10 -11 -2 -15 6 -4 11 -1 11 6 0 9 3 9 10 -2 6
-9 10 -10 10 -3 0 17 -14 23 -29 14z"/>
<path d="M1336 1378 c3 -5 10 -6 15 -3 13 9 11 12 -6 12 -8 0 -12 -4 -9 -9z"/>
<path d="M1254 1362 c4 -3 14 -7 22 -8 9 -1 13 0 10 4 -4 3 -14 7 -22 8 -9 1
-13 0 -10 -4z"/>
<path d="M1305 1340 c-3 -6 1 -7 9 -4 18 7 21 14 7 14 -6 0 -13 -4 -16 -10z"/>
<path d="M1510 1301 c0 -5 7 -15 17 -22 15 -13 15 -12 4 9 -12 23 -21 28 -21
13z"/>
<path d="M1310 1266 c0 -2 7 -7 16 -10 8 -3 12 -2 9 4 -6 10 -25 14 -25 6z"/>
<path d="M1551 1264 c-1 -6 5 -17 12 -23 10 -8 14 -7 14 4 0 8 -4 12 -8 9 -4
-2 -10 2 -12 8 -4 8 -6 9 -6 2z"/>
<path d="M1450 1239 c0 -5 5 -7 10 -4 6 3 10 8 10 11 0 2 -4 4 -10 4 -5 0 -10
-5 -10 -11z"/>
<path d="M1594 1212 c4 -7 2 -21 -5 -30 -12 -15 -11 -15 6 0 16 15 17 20 6 30
-11 11 -13 10 -7 0z"/>
<path d="M1446 1202 c-3 -5 1 -9 9 -9 8 0 12 4 9 9 -3 4 -7 8 -9 8 -2 0 -6 -4
-9 -8z"/>
<path d="M1495 1200 c3 -5 8 -10 11 -10 2 0 4 5 4 10 0 6 -5 10 -11 10 -5 0
-7 -4 -4 -10z"/>
<path d="M1535 1200 c3 -5 8 -10 11 -10 2 0 4 5 4 10 0 6 -5 10 -11 10 -5 0
-7 -4 -4 -10z"/>
<path d="M1493 1165 c0 -8 4 -12 9 -9 5 3 6 10 3 15 -9 13 -12 11 -12 -6z"/>
<path d="M1595 1161 c-3 -5 -2 -12 3 -15 5 -3 9 1 9 9 0 17 -3 19 -12 6z"/>
<path d="M1678 1159 c13 -5 21 -13 18 -17 -3 -5 1 -9 9 -9 13 0 12 4 -2 19 -9
10 -23 18 -32 17 -10 0 -7 -4 7 -10z"/>
<path d="M1656 1118 c3 -5 10 -6 15 -3 13 9 11 12 -6 12 -8 0 -12 -4 -9 -9z"/>
<path d="M1566 1082 c-3 -5 1 -9 9 -9 8 0 12 4 9 9 -3 4 -7 8 -9 8 -2 0 -6 -4
-9 -8z"/>
<path d="M1614 1082 c4 -3 14 -7 22 -8 9 -1 13 0 10 4 -4 3 -14 7 -22 8 -9 1
-13 0 -10 -4z"/>
<path d="M1776 1075 c-9 -26 -7 -32 5 -12 6 10 9 21 6 23 -2 3 -7 -2 -11 -11z"/>
<path d="M1826 1043 c-6 -14 -5 -15 5 -6 7 7 10 15 7 18 -3 3 -9 -2 -12 -12z"/>
<path d="M1850 1055 c0 -5 5 -17 10 -25 5 -8 10 -10 10 -5 0 6 -5 17 -10 25
-5 8 -10 11 -10 5z"/>
<path d="M1715 999 c-3 -4 2 -6 10 -5 21 3 28 13 10 13 -9 0 -18 -4 -20 -8z"/>
<path d="M1835 919 c-3 -4 2 -6 10 -5 21 3 28 13 10 13 -9 0 -18 -4 -20 -8z"/>
<path d="M2097 896 c-4 -10 -1 -13 8 -9 8 3 12 9 9 14 -7 12 -11 11 -17 -5z"/>
<path d="M1873 875 c0 -8 4 -12 9 -9 5 3 6 10 3 15 -9 13 -12 11 -12 -6z"/>
<path d="M1916 882 c-3 -5 1 -9 9 -9 8 0 12 4 9 9 -3 4 -7 8 -9 8 -2 0 -6 -4
-9 -8z"/>
<path d="M2130 859 c0 -5 5 -7 10 -4 6 3 10 8 10 11 0 2 -4 4 -10 4 -5 0 -10
-5 -10 -11z"/>
<path d="M2190 837 c0 -2 6 -10 14 -16 11 -9 16 -9 22 1 4 7 4 10 -1 6 -4 -4
-14 -3 -22 3 -7 6 -13 9 -13 6z"/>
<path d="M2096 798 c3 -4 11 -5 19 -1 21 7 19 12 -4 10 -11 0 -18 -5 -15 -9z"/>
<path d="M2393 765 c0 -8 4 -15 9 -15 4 0 8 4 8 9 0 6 -4 12 -8 15 -5 3 -9 -1
-9 -9z"/>
<path d="M2135 761 c-3 -5 -2 -12 3 -15 5 -3 9 1 9 9 0 17 -3 19 -12 6z"/>
<path d="M2255 760 c-3 -5 -1 -10 4 -10 6 0 11 5 11 10 0 6 -2 10 -4 10 -3 0
-8 -4 -11 -10z"/>
<path d="M2490 722 c0 -4 10 -9 22 -9 18 -2 20 0 8 7 -18 12 -30 13 -30 2z"/>
<path d="M2419 708 c-5 -18 -6 -38 -1 -34 7 8 12 36 6 36 -2 0 -4 -1 -5 -2z"/>
<path d="M2571 694 c0 -11 3 -14 6 -6 3 7 2 16 -1 19 -3 4 -6 -2 -5 -13z"/>
<path d="M4470 699 c0 -5 5 -7 10 -4 6 3 10 8 10 11 0 2 -4 4 -10 4 -5 0 -10
-5 -10 -11z"/>
<path d="M2533 685 c0 -8 4 -12 9 -9 5 3 6 10 3 15 -9 13 -12 11 -12 -6z"/>
<path d="M2490 680 c0 -5 5 -10 11 -10 5 0 7 5 4 10 -3 6 -8 10 -11 10 -2 0
-4 -4 -4 -10z"/>
<path d="M2619 678 c-6 -20 -6 -39 0 -42 4 -3 7 6 7 20 0 20 -4 32 -7 22z"/>
<path d="M2460 666 c0 -2 8 -10 18 -17 15 -13 16 -12 3 4 -13 16 -21 21 -21
13z"/>
<path d="M2756 652 c-3 -5 1 -9 9 -9 8 0 12 4 9 9 -3 4 -7 8 -9 8 -2 0 -6 -4
-9 -8z"/>
<path d="M2576 642 c-3 -5 1 -9 9 -9 8 0 12 4 9 9 -3 4 -7 8 -9 8 -2 0 -6 -4
-9 -8z"/>
<path d="M2769 617 c6 -8 7 -18 3 -22 -4 -5 -1 -5 6 -1 10 6 10 11 1 22 -6 8
-14 14 -16 14 -3 0 0 -6 6 -13z"/>
<path d="M3900 610 c-8 -5 -12 -12 -9 -15 4 -3 12 1 19 10 14 17 11 19 -10 5z"/>
<path d="M2993 585 c0 -8 4 -12 9 -9 5 3 6 10 3 15 -9 13 -12 11 -12 -6z"/>
<path d="M2486 578 c3 -5 10 -6 15 -3 13 9 11 12 -6 12 -8 0 -12 -4 -9 -9z"/>
<path d="M3730 580 c0 -5 5 -10 11 -10 5 0 7 5 4 10 -3 6 -8 10 -11 10 -2 0
-4 -4 -4 -10z"/>
<path d="M3806 578 c3 -5 10 -6 15 -3 13 9 11 12 -6 12 -8 0 -12 -4 -9 -9z"/>
<path d="M3653 565 c0 -8 4 -12 9 -9 5 3 6 10 3 15 -9 13 -12 11 -12 -6z"/>
<path d="M3200 560 c-9 -6 -10 -10 -3 -10 6 0 15 5 18 10 8 12 4 12 -15 0z"/>
<path d="M3036 547 c3 -10 9 -15 12 -12 3 3 0 11 -7 18 -10 9 -11 8 -5 -6z"/>
<path d="M3113 545 c0 -8 4 -12 9 -9 5 3 6 10 3 15 -9 13 -12 11 -12 -6z"/>
<path d="M2810 546 c0 -2 7 -7 16 -10 8 -3 12 -2 9 4 -6 10 -25 14 -25 6z"/>
<path d="M3276 542 c-3 -5 1 -9 9 -9 8 0 12 4 9 9 -3 4 -7 8 -9 8 -2 0 -6 -4
-9 -8z"/>
<path d="M3350 538 c0 -4 4 -8 9 -8 6 0 12 4 15 8 3 5 -1 9 -9 9 -8 0 -15 -4
-15 -9z"/>
<path d="M3486 542 c-3 -5 1 -9 9 -9 8 0 12 4 9 9 -3 4 -7 8 -9 8 -2 0 -6 -4
-9 -8z"/>
<path d="M3153 525 c0 -8 4 -12 9 -9 5 3 6 10 3 15 -9 13 -12 11 -12 -6z"/>
<path d="M3399 453 c-13 -16 -12 -17 4 -4 16 13 21 21 13 21 -2 0 -10 -8 -17
-17z"/>
</g>
</svg>
