<?xml version="1.0" standalone="no"?>
<!DOCTYPE svg PUBLIC "-//W3C//DTD SVG 20010904//EN"
 "http://www.w3.org/TR/2001/REC-SVG-20010904/DTD/svg10.dtd">
<svg version="1.0" xmlns="http://www.w3.org/2000/svg"
 width="70.000000pt" height="70.000000pt" viewBox="0 0 70.000000 70.000000"
 preserveAspectRatio="xMidYMid meet">
<metadata>
Created by potrace 1.11, written by Peter Selinger 2001-2013
</metadata>
<g transform="translate(0.000000,70.000000) scale(0.100000,-0.100000)"
fill="#000000" stroke="none">
<path d="M318 580 c-18 -29 -33 -57 -33 -62 0 -5 -7 -13 -15 -18 -8 -5 -11
-10 -6 -10 5 0 2 -8 -7 -18 -10 -10 -14 -22 -10 -25 3 -4 1 -7 -5 -7 -7 0 -12
-7 -12 -15 0 -9 -6 -18 -13 -21 -8 -3 -14 -10 -14 -17 -1 -17 -89 -168 -95
-162 -3 3 -5 -1 -5 -8 0 -7 -16 -41 -36 -76 -21 -34 -37 -68 -37 -75 0 -10 25
-13 107 -12 l107 1 42 70 c23 39 39 73 37 77 -2 5 1 8 6 8 6 0 11 7 11 15 0 8
5 15 11 15 5 0 8 4 5 9 -3 5 1 14 9 21 8 7 12 16 9 21 -3 5 0 9 5 9 6 0 11 7
11 15 0 8 5 15 10 15 6 0 10 7 10 15 0 27 29 4 51 -41 11 -25 26 -50 33 -57
14 -15 56 -96 56 -109 0 -5 -24 -8 -55 -6 -32 2 -57 0 -59 -7 -3 -6 -5 -6 -5
0 -1 15 -70 10 -86 -6 -13 -13 -19 -33 -16 -54 1 -9 211 -13 246 -5 6 1 12 1
15 0 15 -6 62 -5 66 2 3 4 11 5 20 1 12 -4 12 0 -3 25 -10 17 -45 77 -78 133
-33 56 -72 123 -87 148 -15 25 -35 60 -43 76 -24 46 -47 72 -52 58 -2 -6 -13
-21 -23 -33 -11 -13 -17 -27 -14 -31 3 -5 1 -9 -3 -9 -5 0 -13 -9 -18 -20 -41
-82 -80 -150 -88 -150 -4 0 -6 -4 -2 -9 3 -5 -3 -17 -12 -27 -10 -10 -17 -20
-17 -23 1 -3 -8 -22 -19 -42 -16 -28 -25 -35 -44 -31 -13 2 -23 6 -23 8 0 2
14 26 30 54 17 28 30 55 30 60 0 6 5 10 10 10 6 0 10 4 10 9 0 5 20 44 45 85
25 42 45 79 45 82 0 3 13 24 29 47 16 23 30 47 31 52 1 6 5 16 7 22 3 7 -4 27
-15 45 l-20 32 -34 -54z"/>
</g>
</svg>
